<svg width="24" height="24" viewBox="0 0 24 24" fill="none" xmlns="http://www.w3.org/2000/svg">
<path d="M15 21C15.5304 21 18.5 21 19 21C19.5304 21 20.0391 20.7893 20.4142 20.4142C20.7893 20.0391 21 19.5304 21 19V9.99997C21.0001 9.70904 20.9367 9.42159 20.8142 9.15768C20.6918 8.89378 20.5132 8.65976 20.291 8.47197L13.291 2.47297C12.93 2.16788 12.4726 2.00049 12 2.00049C11.5274 2.00049 11.07 2.16788 10.709 2.47297L3.709 8.47197C3.4868 8.65976 3.30824 8.89378 3.18579 9.15768C3.06333 9.42159 2.99993 9.70904 3 9.99997V19C3 19.5304 3.21071 20.0391 3.58579 20.4142C3.96086 20.7893 4.46957 21 5 21H7L9 21" stroke="#DADADA" stroke-width="1.5" stroke-linecap="round" stroke-linejoin="round"/>
<path d="M15 21V13C15 12.7348 14.8946 12.4804 14.7071 12.2929C14.5196 12.1054 14.2652 12 14 12H10C9.73478 12 9.48043 12.1054 9.29289 12.2929C9.10536 12.4804 9 12.7348 9 13V21" stroke="#DADADA" stroke-width="1.5" stroke-linejoin="round"/>
</svg>
